PathFileType	4	(x/y/z)	S02_M20_T04
DataRate	CameraRate	NumFrames	NumMarkers	Units	OrigDataRate	OrigDataStartFrame	OrigNumFrames
240	240	8	51	mm	240	350	466
Frame#	Time	Sternum			R.Acromium			L.Acromium			Top.Head			R.ASIS			L.ASIS			R.PSIS			L.PSIS			R.Great.Tro			L.Great.Tro			R.Iliac.Crest			L.Iliac.Crest			V.Sacral			R.Thigh.Upper.Post			R.Thigh.Lower.Ant			R.Thigh.Lower.Post			R.Thigh.Upper.Ant			R.Knee.Lat			R.Knee.Med			R.Shank.Upper.Post			R.Shank.Lower.Ant			R.Shank.Lower.Post			R.Shank.Upper.Ant			R.Ankle.Lat			R.Ankle.Med			R.Heel.Upper			R.Heel.Med			R.Heel.Lat			R.Toe.Lat			R.Toe.Med			R.Toe.Tip			L.Thigh.Upper.Post			L.Thigh.Lower.Ant			L.Thigh.Lower.Post			L.Thigh.Upper.Ant			L.Knee.Lat			L.Knee.Med			L.Shank.Upper.Post			L.Shank.Lower.Ant			L.Shank.Lower.Post			L.Shank.Upper.Ant			L.Ankle.Lat			L.Ankle.Med			L.Heel.Upper			L.Heel.Med			L.Heel.Lat			L.Toe.Lat			L.Toe.Med			L.Toe.Tip			Cervical.Spine			Back			
		X1	Y1	Z1	X2	Y2	Z2	X3	Y3	Z3	X4	Y4	Z4	X5	Y5	Z5	X6	Y6	Z6	X7	Y7	Z7	X8	Y8	Z8	X9	Y9	Z9	X10	Y10	Z10	X11	Y11	Z11	X12	Y12	Z12	X13	Y13	Z13	X14	Y14	Z14	X15	Y15	Z15	X16	Y16	Z16	X17	Y17	Z17	X18	Y18	Z18	X19	Y19	Z19	X20	Y20	Z20	X21	Y21	Z21	X22	Y22	Z22	X23	Y23	Z23	X24	Y24	Z24	X25	Y25	Z25	X26	Y26	Z26	X27	Y27	Z27	X28	Y28	Z28	X29	Y29	Z29	X30	Y30	Z30	X31	Y31	Z31	X32	Y32	Z32	X33	Y33	Z33	X34	Y34	Z34	X35	Y35	Z35	X36	Y36	Z36	X37	Y37	Z37	X38	Y38	Z38	X39	Y39	Z39	X40	Y40	Z40	X41	Y41	Z41	X42	Y42	Z42	X43	Y43	Z43	X44	Y44	Z44	X45	Y45	Z45	X46	Y46	Z46	X47	Y47	Z47	X48	Y48	Z48	X49	Y49	Z49	X50	Y50	Z50	X51	Y51	Z51	

350	1.4542	367.9	1093.9	304.96	255.24	1328.2	441.85	251.94	1326.6	148.34	292.46	1607	263	329.27	899.91	423.05	356.51	907.02	207.68	118.54	937.67	346.6	120.55	948.11	272.36	239.29	777.83	504.65	250.39	828.22	109.48	224.17	948.55	472.92	237.99	961.58	133.35	98.049	894.51	296.54	263.69	590.32	506.95	328.05	511.63	496.57	255.84	500.43	496.18	331.86	601.2	503.28	272.28	425.28	494.83	295.81	398.72	354.05	80.457	353.99	458.11	58.429	246.32	445.96	25.413	305.86	445.76	111.38	288.91	466.66	-39.057	232.27	429.91	-10.084	231.63	348.4	-66.169	281.48	372.4	-83.488	260.43	337.56	-99.916	264.31	400.64	-50.759	112.57	442.78	-18.25	91.091	339.04	15.434	56.1	399.85	272.06	592.58	143.68	365.14	535.74	160.36	291.79	507.82	171.9	336.61	622.71	132.76	364.47	452.56	177.46	354.63	457.79	313.32	283.46	278.71	185.46	352.87	193.74	207.82	281.42	206.83	204.99	348.02	267.6	187.74	306.73	93.755	223.61	315.99	95.54	306.87	245.74	66.111	261.54	255	40.95	295.81	250.82	37.815	233.98	417.23	34.891	202.49	439.34	46.079	312.57	498.56	61.996	264.79	173.24	1384.9	296.96	101.13	1131.7	311.8
351	1.4583	372.78	1094.8	304.87	259.97	1329.3	441.64	256.94	1327.5	148.03	297.6	1608	262.71	334.57	901.29	422.75	361.23	907.7	207.28	123.72	939.03	346.45	125.59	949.38	272.22	245.14	779.24	504.32	254.2	828.92	109.36	229.45	949.85	472.58	242.78	962.43	133.06	103.01	895.85	296.49	272.38	591.8	507.14	337.62	513.85	496.61	265.54	501.83	496.38	340.4	603.46	503.32	282.99	426.82	494.86	306.39	400.79	353.95	91.754	353.79	458.36	70.879	245.94	445.86	37.226	305.13	445.99	123.41	289.01	466.54	-26.712	231.19	429.92	2.2034	230.81	348.52	-55.209	279.37	372.1	-71.993	257.63	337.45	-88.501	261.57	400.48	-35.528	111.53	443.69	-2.5762	90.039	340.15	32.026	56.463	401.18	274.2	593.28	143.86	366.84	535.63	160.18	293.3	508.36	171.99	338.96	622.84	132.66	365.53	452.53	177.26	356.24	457.82	313.22	283.94	278.93	185.46	353.14	193.76	207.72	281.72	207.08	205.02	348.47	267.63	187.63	306.8	93.84	223.62	316.07	95.621	306.87	245.77	66.202	261.55	255.03	41.038	295.8	250.85	37.926	233.97	417.25	34.873	202.47	439.38	46.048	312.57	498.61	61.907	264.78	178.19	1385.9	296.56	106.12	1132.7	311.21
352	1.4625	377.64	1095.8	304.78	264.67	1330.5	441.43	261.92	1328.3	147.73	302.73	1609.1	262.44	339.87	902.68	422.42	365.93	908.41	206.87	128.9	940.41	346.34	130.61	950.66	272.12	251.02	780.69	504	257.95	829.63	109.27	234.78	951.19	472.25	247.5	963.28	132.81	107.95	897.2	296.5	281.05	593.31	507.32	347.15	516.12	496.59	275.22	503.27	496.55	348.91	605.75	503.32	293.67	428.4	494.83	316.95	402.93	353.8	103.06	353.48	458.59	83.432	245.44	445.74	49.095	304.25	446.19	135.49	289.04	466.38	-14.249	229.92	429.93	14.596	229.79	348.62	-44.134	277.01	371.78	-60.358	254.57	337.34	-76.946	258.57	400.31	-20.103	110.36	444.63	13.285	88.858	341.29	48.812	56.753	402.53	276.31	594	144.04	368.5	535.54	160.01	294.77	508.93	172.08	341.27	622.99	132.56	366.54	452.51	177.07	357.78	457.86	313.12	284.39	279.17	185.46	353.38	193.79	207.62	282.01	207.34	205.04	348.9	267.67	187.53	306.87	93.93	223.63	316.14	95.707	306.87	245.79	66.3	261.55	255.06	41.132	295.79	250.88	38.042	233.95	417.26	34.854	202.46	439.43	46.02	312.56	498.67	61.819	264.76	183.12	1387	296.17	111.1	1133.8	310.63
353	1.4667	382.49	1096.9	304.71	269.35	1331.6	441.23	266.88	1329.2	147.45	307.84	1610.1	262.18	345.18	904.1	422.07	370.59	909.14	206.43	134.09	941.81	346.28	135.62	951.95	272.07	256.94	782.17	503.7	261.64	830.33	109.2	240.17	952.55	471.93	252.15	964.13	132.57	112.88	898.57	296.57	289.7	594.85	507.49	356.66	518.43	496.52	284.88	504.76	496.69	357.39	608.08	503.29	304.31	430.04	494.74	327.48	405.13	353.61	114.37	353.07	458.78	96.083	244.84	445.59	61.02	303.22	446.35	147.63	289.01	466.19	-1.6686	228.46	429.94	27.097	228.57	348.7	-32.934	274.4	371.44	-48.575	251.25	337.22	-65.243	255.32	400.15	-4.4893	109.08	445.59	29.324	87.559	342.45	65.772	56.975	403.89	278.38	594.74	144.23	370.11	535.45	159.84	296.2	509.52	172.19	343.55	623.14	132.46	367.52	452.51	176.88	359.24	457.91	313.02	284.81	279.42	185.45	353.62	193.85	207.52	282.28	207.62	205.06	349.3	267.74	187.42	306.94	94.026	223.63	316.23	95.8	306.86	245.82	66.406	261.55	255.09	41.231	295.77	250.91	38.162	233.94	417.28	34.833	202.44	439.47	45.995	312.55	498.72	61.731	264.73	188.03	1388	295.78	116.07	1134.8	310.04
354	1.4708	387.33	1097.9	304.64	274	1332.7	441.03	271.83	1330.1	147.18	312.94	1611.1	261.95	350.49	905.53	421.67	375.22	909.91	205.98	139.28	943.23	346.26	140.62	953.23	272.06	262.9	783.68	503.41	265.27	831.04	109.16	245.61	953.93	471.63	256.74	964.96	132.36	117.8	899.94	296.7	298.33	596.42	507.64	366.12	520.78	496.4	294.5	506.29	496.81	365.84	610.43	503.22	314.9	431.72	494.6	337.98	407.37	353.38	125.68	352.56	458.93	108.83	244.14	445.43	73.001	302.06	446.49	159.82	288.91	465.97	11.032	226.82	429.95	39.709	227.16	348.76	-21.601	271.54	371.09	-36.634	247.69	337.11	-53.384	251.84	399.99	11.305	107.7	446.57	45.534	86.156	343.62	82.892	57.136	405.26	280.43	595.5	144.43	371.67	535.37	159.67	297.6	510.13	172.32	345.8	623.3	132.36	368.46	452.53	176.69	360.62	457.97	312.92	285.21	279.68	185.45	353.83	193.92	207.41	282.54	207.91	205.09	349.67	267.82	187.31	307.01	94.128	223.63	316.31	95.898	306.85	245.84	66.519	261.55	255.12	41.336	295.75	250.94	38.286	233.93	417.3	34.812	202.42	439.52	45.972	312.54	498.78	61.641	264.71	192.92	1389.1	295.4	121.02	1135.8	309.47
355	1.475	392.15	1099	304.59	278.64	1333.9	440.83	276.76	1331	146.92	318.02	1612.1	261.73	355.81	906.97	421.25	379.81	910.7	205.5	144.47	944.64	346.29	145.59	954.5	272.09	268.9	785.23	503.14	268.85	831.75	109.14	251.1	955.33	471.33	261.25	965.79	132.17	122.71	901.3	296.89	306.92	598.01	507.77	375.55	523.17	496.22	304.1	507.85	496.89	374.25	612.81	503.12	325.45	433.44	494.39	348.43	409.66	353.11	136.99	351.94	459.05	121.67	243.34	445.26	85.038	300.76	446.6	172.05	288.75	465.74	23.855	225.01	429.97	52.434	225.57	348.82	-10.127	268.46	370.74	-24.528	243.9	337	-41.359	248.12	399.85	27.274	106.21	447.56	61.911	84.66	344.79	100.16	57.243	406.63	282.45	596.27	144.63	373.18	535.3	159.51	298.96	510.76	172.46	348.03	623.46	132.27	369.35	452.56	176.51	361.92	458.04	312.83	285.58	279.96	185.46	354.02	194	207.3	282.77	208.21	205.11	350.02	267.93	187.2	307.08	94.237	223.62	316.4	96.001	306.83	245.87	66.639	261.54	255.15	41.445	295.73	250.98	38.414	233.92	417.31	34.789	202.41	439.56	45.953	312.52	498.83	61.551	264.68	197.8	1390.1	295.03	125.95	1136.9	308.9
356	1.4792	396.98	1100.1	304.54	283.25	1335	440.63	281.68	1331.9	146.68	323.1	1613.1	261.53	361.13	908.42	420.78	384.37	911.53	205	149.67	946.04	346.36	150.55	955.76	272.17	274.93	786.79	502.89	272.41	832.45	109.15	256.65	956.73	471.05	265.71	966.61	132.01	127.61	902.65	297.14	315.48	599.62	507.89	384.93	525.59	496	313.65	509.45	496.94	382.61	615.2	502.99	335.94	435.2	494.14	358.81	411.98	352.8	148.32	351.24	459.13	134.6	242.46	445.08	97.132	299.32	446.68	184.33	288.55	465.49	36.8	223.01	430	65.276	223.79	348.86	1.4962	265.14	370.39	-12.248	239.88	336.9	-29.163	244.18	399.72	43.411	104.64	448.56	78.448	83.085	345.97	117.55	57.304	407.99	284.46	597.06	144.84	374.66	535.23	159.35	300.29	511.4	172.61	350.22	623.63	132.18	370.22	452.61	176.34	363.15	458.12	312.74	285.93	280.25	185.47	354.2	194.11	207.19	282.99	208.52	205.14	350.35	268.05	187.1	307.15	94.351	223.62	316.49	96.108	306.81	245.9	66.767	261.53	255.18	41.558	295.72	251.02	38.544	233.91	417.33	34.767	202.39	439.61	45.936	312.5	498.89	61.459	264.65	202.65	1391.1	294.66	130.88	1137.9	308.34
357	1.4833	401.79	1101.2	304.49	287.85	1336.1	440.44	286.59	1332.9	146.46	328.16	1614.1	261.34	366.46	909.87	420.28	388.9	912.37	204.47	154.87	947.43	346.49	155.49	956.99	272.3	281.01	788.37	502.66	275.94	833.15	109.19	262.25	958.14	470.77	270.1	967.41	131.87	132.5	903.97	297.45	324.01	601.25	507.99	394.27	528.04	495.72	323.17	511.07	496.95	390.94	617.62	502.82	346.37	437.01	493.84	369.12	414.33	352.47	159.64	350.44	459.17	147.61	241.5	444.91	109.28	297.77	446.72	196.64	288.3	465.22	49.871	220.85	430.03	78.239	221.85	348.9	13.274	261.6	370.06	0.21124	235.66	336.82	-16.788	240.03	399.61	59.713	102.99	449.57	95.142	81.445	347.14	135.07	57.325	409.34	286.44	597.85	145.07	376.1	535.17	159.2	301.59	512.07	172.78	352.4	623.8	132.09	371.05	452.67	176.18	364.32	458.2	312.66	286.25	280.56	185.5	354.35	194.23	207.07	283.2	208.84	205.18	350.64	268.19	187	307.21	94.472	223.62	316.59	96.219	306.8	245.93	66.9	261.52	255.2	41.675	295.7	251.05	38.678	233.9	417.35	34.745	202.37	439.66	45.921	312.48	498.95	61.366	264.62	207.49	1392.1	294.3	135.8	1138.9	307.8
